<svg xmlns="http://www.w3.org/2000/svg" xmlns:xlink="http://www.w3.org/1999/xlink" width="100" height="100" viewBox="0 0 100 100">
  <defs>
    <path id="day-off-vector-a" d="M24.5219616,13.1778297 C24.5219616,6.4056813 19.0331292,0.916848897 12.2609808,0.916848897 C5.4888324,0.916848897 0,6.4056813 0,13.1778297 L24.5219616,13.1778297 L24.5219616,13.1778297 Z"/>
  </defs>
  <g fill="none" fill-rule="evenodd" transform="translate(14 27.5)">
    <path fill="#FD4549" fill-rule="nonzero" d="M16.3479744 57.2179103C10.3387315 57.2179103 5.44932479 52.3285037 5.44932479 46.3192608 5.44932479 45.5658916 6.05964917 44.9569296 6.81165599 44.9569296 7.56366281 44.9569296 8.17398719 45.5658916 8.17398719 46.3192608 8.17398719 50.8272147 11.8400204 54.4932479 16.3479744 54.4932479 20.8559283 54.4932479 24.5219616 50.8272147 24.5219616 46.3192608 24.5219616 45.5658916 25.132286 44.9569296 25.8842928 44.9569296 26.6362996 44.9569296 27.246624 45.5658916 27.246624 46.3192608 27.246624 52.3285037 22.3572173 57.2179103 16.3479744 57.2179103M69.8399089 41.7867849C69.6982265 41.7867849 69.5538193 41.7636252 69.4107746 41.717306 59.8335862 38.5349003 47.1788917 36.7829424 33.7790021 36.7829424 22.4294209 36.7829424 11.686077 38.0240261 2.70831442 40.3713227 1.97674257 40.5552375 1.2356344 40.1247408 1.04627036 39.3972559.855543993 38.6697711 1.29148998 37.9245759 2.01897484 37.7338495 11.2187974 35.3306973 22.2005492 34.05828 33.7790021 34.05828 47.463619 34.05828 60.4234757 35.8592818 70.2704056 39.1316013 70.9842671 39.368647 71.3698068 40.1397264 71.1327612 40.853588 70.9433972 41.4244048 70.4107257 41.7867849 69.8399089 41.7867849"/>
    <path fill="#FD4549" fill-rule="nonzero" d="M35.4206112,57.2179103 C29.4113682,57.2179103 24.5219616,52.3285037 24.5219616,46.3192608 C24.5219616,45.5658916 25.132286,44.9569296 25.8842928,44.9569296 C26.6362996,44.9569296 27.246624,45.5658916 27.246624,46.3192608 C27.246624,50.8272147 30.9126572,54.4932479 35.4206112,54.4932479 C39.9285651,54.4932479 43.5945984,50.8272147 43.5945984,46.3192608 C43.5945984,45.5658916 44.2049227,44.9569296 44.9569296,44.9569296 C45.7089364,44.9569296 46.3192608,45.5658916 46.3192608,46.3192608 C46.3192608,52.3285037 41.4298541,57.2179103 35.4206112,57.2179103"/>
    <path fill="#FD4549" fill-rule="nonzero" d="M54.4932479 57.2179103C48.484005 57.2179103 43.5945984 52.3285037 43.5945984 46.3192608 43.5945984 45.5658916 44.2049227 44.9569296 44.9569296 44.9569296 45.7089364 44.9569296 46.3192608 45.5658916 46.3192608 46.3192608 46.3192608 50.8272147 49.985294 54.4932479 54.4932479 54.4932479 59.0012019 54.4932479 62.6672351 50.8272147 62.6672351 46.3192608 62.6672351 45.5658916 63.2775595 44.9569296 64.0295663 44.9569296 64.7815732 44.9569296 65.3918975 45.5658916 65.3918975 46.3192608 65.3918975 52.3285037 60.5024909 57.2179103 54.4932479 57.2179103M22.9552807 36.8088267C22.4525805 36.8088267 21.9689529 36.5295488 21.7319073 36.0472835L11.936746 16.149074C11.6043372 15.4733578 11.8822527 14.6573214 12.5566067 14.3249126 13.2323229 13.9952284 14.0497217 14.2717816 14.3807681 14.9461356L24.1759295 34.8443451C24.5083383 35.518699 24.2304227 36.3360977 23.5560688 36.6685065 23.3626177 36.7625074 23.1569057 36.8088267 22.9552807 36.8088267"/>
    <g transform="translate(1.362 1.362)">
      <mask id="day-off-vector-b" fill="#fff">
        <use xlink:href="#day-off-vector-a"/>
      </mask>
      <polygon fill="#FD4549" fill-rule="nonzero" points="0 .917 24.522 .917 24.522 13.178 0 13.178" mask="url(#day-off-vector-b)" opacity=".205"/>
    </g>
    <path fill="#FD4549" fill-rule="nonzero" d="M25.8842928 15.9024921L1.3623312 15.9024921C.610324377 15.9024921 0 15.29353 0 14.5401609 0 7.02826665 6.11141776.916848897 13.623312.916848897 21.1352062.916848897 27.246624 7.02826665 27.246624 14.5401609 27.246624 15.29353 26.6362996 15.9024921 25.8842928 15.9024921L25.8842928 15.9024921zM2.80912693 13.1778297L24.437497 13.1778297C23.7645054 7.80888243 19.1707246 3.64151129 13.623312 3.64151129 8.07589935 3.64151129 3.48211854 7.80888243 2.80912693 13.1778297L2.80912693 13.1778297zM59.0066512 31.689186C58.9821292 31.689186 58.9576073 31.689186 58.9330853 31.6878237L35.921949 30.4603633C35.1713046 30.4194933 34.5950385 29.7778353 34.6345461 29.0271908 34.6740537 28.2765464 35.3347843 27.7125412 36.0677185 27.7384255L58.6824164 28.945451 66.5934737 24.4810916C67.2501173 24.1105376 68.079777 24.3421339 68.4503311 24.9987775 68.8195228 25.6526965 68.5879265 26.4837185 67.9326452 26.8542726L59.6755558 31.5134453C59.4712061 31.6292434 59.2396098 31.689186 59.0066512 31.689186"/>
    <path fill="#FD4549" fill-rule="nonzero" d="M43.3085088 36.7202751C43.2867115 36.7202751 43.2635519 36.7202751 43.2417546 36.7189128 42.4897478 36.6821299 41.910757 36.0431965 41.9475399 35.2911897L42.2349918 29.4004696C42.2704124 28.6484628 42.9011718 28.0449501 43.6613526 28.106255 44.4133594 28.1430379 44.9923502 28.7819712 44.9569296 29.5339781L44.6694777 35.4246982C44.6326947 36.1535453 44.0305443 36.7202751 43.3085088 36.7202751M55.291574 37.5785438C55.1294566 37.5785438 54.9659769 37.5512972 54.8065841 37.4899923 54.1036212 37.2202507 53.7507774 36.4341856 54.0177944 35.7312227L56.2302202 29.9263294C56.4999618 29.2233665 57.2860269 28.8691604 57.9889898 29.138902 58.6919527 29.4072813 59.0447965 30.1933464 58.7777796 30.8976716L56.5653537 36.7012025C56.356917 37.2447726 55.8405935 37.5785438 55.291574 37.5785438"/>
  </g>
</svg>
