<svg xmlns="http://www.w3.org/2000/svg" xmlns:xlink="http://www.w3.org/1999/xlink" width="100" height="100" viewBox="0 0 100 100">
  <defs>
    <polygon id="development-vector-a" points="0 0 48.114 0 48.114 11.703 0 11.703"/>
    <polygon id="development-vector-c" points="0 0 40.312 0 37.711 29.909 2.601 29.909"/>
  </defs>
  <g fill="none" fill-rule="evenodd" transform="translate(25.143 10.5)">
    <g transform="translate(0 35.11)">
      <mask id="development-vector-b" fill="#fff">
        <use xlink:href="#development-vector-a"/>
      </mask>
      <path fill="#FD4549" fill-rule="nonzero" d="M48.1139356,14.304143 L-8.8817842e-16,14.304143 C-1.43561581,14.304143 -2.60075328,13.1390056 -2.60075328,11.7033897 L-2.60075328,3.55271368e-15 C-2.60075328,-1.43561581 -1.43561581,-2.60075328 -8.8817842e-16,-2.60075328 L48.1139356,-2.60075328 C49.5495514,-2.60075328 50.7146889,-1.43561581 50.7146889,3.55271368e-15 L50.7146889,11.7033897 C50.7146889,13.1390056 49.5495514,14.304143 48.1139356,14.304143 L48.1139356,14.304143 Z M2.60075328,9.10263647 L45.5131823,9.10263647 L45.5131823,2.60075328 L2.60075328,2.60075328 L2.60075328,9.10263647 Z" mask="url(#development-vector-b)"/>
    </g>
    <g transform="translate(3.901 44.213)">
      <mask id="development-vector-d" fill="#fff">
        <use xlink:href="#development-vector-c"/>
      </mask>
      <path fill="#FD4549" fill-rule="nonzero" d="M37.7109225,32.509416 L2.60075328,32.509416 C1.2522627,32.509416 0.127436911,31.4782173 0.0104030131,30.1336278 L-2.59035026,0.224965158 C-2.65406872,-0.500645006 -2.40829753,-1.21975329 -1.91805554,-1.75810922 C-1.4252128,-2.29516477 -0.728210917,-2.60075328 2.66453526e-15,-2.60075328 L40.3116758,-2.60075328 C41.0398867,-2.60075328 41.7368886,-2.29516477 42.2297313,-1.75810922 C42.7199733,-1.21975329 42.9657445,-0.500645006 42.9020261,0.224965158 L40.3012728,30.1336278 C40.1842389,31.4782173 39.0594131,32.509416 37.7109225,32.509416 L37.7109225,32.509416 Z M4.98564403,27.3079094 L35.3260318,27.3079094 L37.474254,2.60075328 L2.83742182,2.60075328 L4.98564403,27.3079094 L4.98564403,27.3079094 Z" mask="url(#development-vector-d)"/>
    </g>
    <path fill="#FD4549" fill-rule="nonzero" d="M23.001062 37.1478594C22.9191383 37.1478594 22.8372145 37.1413575 22.7552908 37.1244526 22.0504867 36.9892135 21.5875526 36.3104169 21.7214914 35.6056127 21.8151185 35.1140704 24.112884 23.5056081 33.0438708 18.0765356 33.6589489 17.7033276 34.4573802 17.9009848 34.8305883 18.5121618 35.2037964 19.1259396 35.0087399 19.9256712 34.3949621 20.2988793 26.4652653 25.1193755 24.2975375 35.982722 24.2767315 36.0919536 24.1570968 36.7135336 23.6109386 37.1478594 23.001062 37.1478594M21.250755 25.4912832L21.2494546 25.4912832C18.6343972 25.4899829 15.5876148 23.8541091 13.2989519 21.219546 9.83995002 17.2429942 11.3275809 10.5668606 11.3925997 10.2833785 11.5174359 9.73591989 11.9868719 9.33020238 12.5460338 9.28078807 12.5460338 9.28078807 12.9595536 9.24307715 13.6344491 9.24307715 16.0570507 9.24307715 20.50824 9.69040671 23.111594 12.6890752 24.7487682 14.5720206 25.8397842 16.7566534 26.1856844 18.8398567 26.5679951 21.1519264 26.0062324 23.0959895 24.6044264 24.3144424 23.7188699 25.082965 22.5602343 25.4912832 21.250755 25.4912832L21.250755 25.4912832zM13.7644867 11.8438304C13.5330197 13.5967381 13.3314613 17.2937089 15.2612202 19.5134518 17.0427362 21.5641458 19.3938172 22.8892296 21.2494546 22.8892296L21.250755 22.8892296C21.9321524 22.8892296 22.4874132 22.7084772 22.8970318 22.3508737 23.8346034 21.5368379 23.7526797 20.0674123 23.6187409 19.2637795 23.3560648 17.6721185 22.4562042 15.8984048 21.1493256 14.3951694 19.2013614 12.1533201 15.4302692 11.8581346 13.7644867 11.8438304L13.7644867 11.8438304zM44.2167068 27.5185704C43.4975986 27.5185704 42.9163302 26.9373021 42.9163302 26.2181938L42.9163302 23.4067795C42.9163302 22.6876712 43.4975986 22.1064029 44.2167068 22.1064029 44.9358151 22.1064029 45.5170835 22.6876712 45.5170835 23.4067795L45.5170835 26.2181938C45.5170835 26.9373021 44.9358151 27.5185704 44.2167068 27.5185704M44.2167068 6.17418828C43.4975986 6.17418828 42.9163302 5.59291992 42.9163302 4.87381164L42.9163302 2.27305836C42.9163302 1.55395008 43.4975986.972681725 44.2167068.972681725 44.9358151.972681725 45.5170835 1.55395008 45.5170835 2.27305836L45.5170835 4.87381164C45.5170835 5.59291992 44.9358151 6.17418828 44.2167068 6.17418828"/>
    <path fill="#FD4549" fill-rule="nonzero" d="M44.2167068,24.3794612 C40.989172,24.3794612 38.365012,21.7540008 38.365012,18.5277663 C38.365012,17.8086581 38.9462803,17.2273897 39.6653886,17.2273897 C40.3844969,17.2273897 40.9657652,17.8086581 40.9657652,18.5277663 C40.9657652,20.3209857 42.4234874,21.7787079 44.2167068,21.7787079 C46.0099262,21.7787079 47.4676484,20.3209857 47.4676484,18.5277663 C47.4676484,16.734547 46.0099262,15.2768247 44.2167068,15.2768247 C43.4975986,15.2768247 42.9163302,14.6955564 42.9163302,13.9764481 C42.9163302,13.2573398 43.4975986,12.6760715 44.2167068,12.6760715 C47.4429413,12.6760715 50.0684017,15.3015319 50.0684017,18.5277663 C50.0684017,21.7540008 47.4429413,24.3794612 44.2167068,24.3794612"/>
    <path fill="#FD4549" fill-rule="nonzero" d="M44.2167068,15.2768247 C40.989172,15.2768247 38.365012,12.6513643 38.365012,9.42512987 C38.365012,6.19889543 40.989172,3.573435 44.2167068,3.573435 C47.4429413,3.573435 50.0684017,6.19889543 50.0684017,9.42512987 C50.0684017,10.1442382 49.4871333,10.7255065 48.7680251,10.7255065 C48.0489168,10.7255065 47.4676484,10.1442382 47.4676484,9.42512987 C47.4676484,7.63191049 46.0099262,6.17418828 44.2167068,6.17418828 C42.4234874,6.17418828 40.9657652,7.63191049 40.9657652,9.42512987 C40.9657652,11.2183493 42.4234874,12.6760715 44.2167068,12.6760715 C44.9358151,12.6760715 45.5170835,13.2573398 45.5170835,13.9764481 C45.5170835,14.6955564 44.9358151,15.2768247 44.2167068,15.2768247"/>
  </g>
</svg>
