<?xml version="1.0" encoding="UTF-8" standalone="no"?>
<svg width="18px" height="13px" viewBox="0 0 18 13" version="1.1" xmlns="http://www.w3.org/2000/svg" xmlns:xlink="http://www.w3.org/1999/xlink">
    <!-- Generator: Sketch 39.1 (31720) - http://www.bohemiancoding.com/sketch -->
    <title>arrow</title>
    <desc>Created with Sketch.</desc>
    <defs></defs>
    <g id="Page-1" stroke="none" stroke-width="1" fill="none" fill-rule="evenodd">
        <g id="arrow" transform="translate(0.000000, -1.000000)" fill="#FFFFFF">
            <g id="Group">
                <g id="Page-1">
                    <g id="Group">
                        <path d="M17.823,7.07 C18.0449899,7.30600042 18.0449899,7.67399958 17.823,7.91 L12.199,13.82 C12.0945085,13.9290451 11.9500275,13.9907038 11.799,13.9907038 C11.6479725,13.9907038 11.5034915,13.9290451 11.399,13.82 C11.1770101,13.5839996 11.1770101,13.2160004 11.399,12.98 L17.022,7.07 C17.1266661,6.96089894 17.2713113,6.89921966 17.4225,6.89921966 C17.5736887,6.89921966 17.7183339,6.96089894 17.823,7.07 L17.823,7.07 L17.823,7.07 Z" id="Arrow_copy_5-path"></path>
                        <path d="M12.199,1.16 L17.823,7.07 C18.0449899,7.30600042 18.0449899,7.67399958 17.823,7.91 C17.7208045,8.02314923 17.5754686,8.0877231 17.423,8.0877231 C17.2705314,8.0877231 17.1251955,8.02314923 17.023,7.91 L11.4,2 C11.1780101,1.76399958 11.1780101,1.39600042 11.4,1.16 C11.5044915,1.05095486 11.6489725,0.98929623 11.8,0.98929623 C11.9510275,0.98929623 12.0955085,1.05095486 12.2,1.16 L12.199,1.16 L12.199,1.16 Z" id="Arrow_copy_5-path"></path>
                        <path d="M0.591,6.91 L16.253,6.91 C16.4098137,6.90919901 16.5604507,6.97107011 16.67143,7.08186163 C16.7824093,7.19265316 16.8445354,7.3431852 16.844,7.5 L16.844,7.5 C16.8445354,7.6568148 16.7824093,7.80734684 16.67143,7.91813837 C16.5604507,8.02892989 16.4098137,8.09080099 16.253,8.09 L0.591,8.09 C0.434186334,8.09080099 0.283549295,8.02892989 0.172569991,7.91813837 C0.0615906864,7.80734684 -0.000535432474,7.6568148 7.34240359e-14,7.5 L7.34240359e-14,7.5 C-0.000535432474,7.3431852 0.0615906864,7.19265316 0.172569991,7.08186163 C0.283549295,6.97107011 0.434186334,6.90919901 0.591,6.91 L0.591,6.91 L0.591,6.91 Z" id="Arrow_copy_5-path"></path>
                    </g>
                </g>
            </g>
        </g>
    </g>
</svg>