<svg xmlns="http://www.w3.org/2000/svg" width="100" height="100" viewBox="0 0 100 100">
  <g fill="#FD4549" transform="translate(13 38.5)">
    <path d="M54.4795499,46.6967571 L36.3196999,46.6967571 C35.6023859,46.6967571 35.0225678,46.116939 35.0225678,45.3996249 L35.0225678,29.8340392 C35.0225678,29.1167252 35.6023859,28.5369071 36.3196999,28.5369071 L54.4795499,28.5369071 C55.196864,28.5369071 55.776682,29.1167252 55.776682,29.8340392 L55.776682,45.3996249 C55.776682,46.116939 55.196864,46.6967571 54.4795499,46.6967571 L54.4795499,46.6967571 Z M37.6168321,44.1024928 L53.1824178,44.1024928 L53.1824178,31.1311714 L37.6168321,31.1311714 L37.6168321,44.1024928 Z"/>
    <polygon points="34.976 36.32 55.777 36.32 55.777 38.914 34.976 38.914"/>
    <path d="M36.3196999,46.6967571 L20.7541142,46.6967571 C20.0368002,46.6967571 19.4569821,46.116939 19.4569821,45.3996249 L19.4569821,29.8340392 C19.4569821,29.1167252 20.0368002,28.5369071 20.7541142,28.5369071 L36.3196999,28.5369071 C37.037014,28.5369071 37.6168321,29.1167252 37.6168321,29.8340392 L37.6168321,45.3996249 C37.6168321,46.116939 37.037014,46.6967571 36.3196999,46.6967571 L36.3196999,46.6967571 Z M22.0512464,44.1024928 L35.0225678,44.1024928 L35.0225678,31.1311714 L22.0512464,31.1311714 L22.0512464,44.1024928 Z"/>
    <path d="M20.7541142 46.6967571L1.29713214 46.6967571C.579818067 46.6967571 0 46.116939 0 45.3996249L0 29.8340392C0 29.1167252.579818067 28.5369071 1.29713214 28.5369071L20.7541142 28.5369071C21.4714283 28.5369071 22.0512464 29.1167252 22.0512464 29.8340392L22.0512464 45.3996249C22.0512464 46.116939 21.4714283 46.6967571 20.7541142 46.6967571L20.7541142 46.6967571zM2.59426428 44.1024928L19.4569821 44.1024928 19.4569821 31.1311714 2.59426428 31.1311714 2.59426428 44.1024928zM72.6393999 46.6967571L54.4795499 46.6967571C53.7622358 46.6967571 53.1824178 46.116939 53.1824178 45.3996249L53.1824178 3.89139642C53.1824178 3.17408235 53.7622358 2.59426428 54.4795499 2.59426428L72.6393999 2.59426428C73.3567139 2.59426428 73.936532 3.17408235 73.936532 3.89139642L73.936532 45.3996249C73.936532 46.116939 73.3567139 46.6967571 72.6393999 46.6967571L72.6393999 46.6967571zM55.776682 44.1024928L71.3422677 44.1024928 71.3422677 5.18852856 55.776682 5.18852856 55.776682 44.1024928z"/>
    <polygon points="53.182 19.457 73.937 19.457 73.937 22.051 53.182 22.051"/>
    <polygon points="57.074 11.674 59.668 11.674 59.668 18.16 57.074 18.16"/>
    <polygon points="57.074 23.348 59.668 23.348 59.668 29.834 57.074 29.834"/>
    <polygon points="15.566 32.428 18.16 32.428 18.16 38.914 15.566 38.914"/>
    <path d="M32.4283035,41.5082285 L24.6455107,41.5082285 C23.9281966,41.5082285 23.3483785,40.9284104 23.3483785,40.2110964 L23.3483785,33.7254357 C23.3483785,33.0081216 23.9281966,32.4283035 24.6455107,32.4283035 L32.4283035,32.4283035 C33.1456176,32.4283035 33.7254357,33.0081216 33.7254357,33.7254357 L33.7254357,40.2110964 C33.7254357,40.9284104 33.1456176,41.5082285 32.4283035,41.5082285 L32.4283035,41.5082285 Z M25.9426428,38.9139642 L31.1311714,38.9139642 L31.1311714,35.0225678 L25.9426428,35.0225678 L25.9426428,38.9139642 Z"/>
    <polygon points="16.863 15.566 40.211 15.566 40.211 18.16 16.863 18.16"/>
    <path d="M35.0472133,18.15985 C35.0420248,18.1611471 35.0329449,18.1611471 35.0225678,18.15985 L22.0512464,18.15985 C21.654324,18.15985 21.2794528,17.9782515 21.0329977,17.6669398 C20.7865426,17.355628 20.6970404,16.9483285 20.7891368,16.5630803 L24.4963405,0.997494616 C24.6351336,0.412488021 25.1565807,0 25.7571529,0 L31.3166613,0 C31.9172335,0 32.4386806,0.412488021 32.5774737,0.997494616 L36.2263064,16.3192195 C36.3028372,16.4839552 36.3443454,16.6694451 36.3443454,16.8627178 C36.3443454,17.5800319 35.7645274,18.15985 35.0472133,18.15985 L35.0472133,18.15985 Z M23.6934157,15.5655857 L33.3803985,15.5655857 L30.2906297,2.59426428 L26.7831844,2.59426428 L23.6934157,15.5655857 L23.6934157,15.5655857 Z"/>
  </g>
</svg>
