<?xml version="1.0" encoding="UTF-8"?>
<svg width="50px" height="50px" viewBox="0 0 50 50" version="1.1" xmlns="http://www.w3.org/2000/svg" xmlns:xlink="http://www.w3.org/1999/xlink">
    <!-- Generator: Sketch 45.2 (43514) - http://www.bohemiancoding.com/sketch -->
    <title>Combined Shape-vector</title>
    <desc>Created with Sketch.</desc>
    <defs></defs>
    <g id="Page-1" stroke="none" stroke-width="1" fill="none" fill-rule="evenodd">
        <g id="sp" transform="translate(-857.000000, -5568.000000)" fill="#FF3B3B">
            <g id="Group-7" transform="translate(-95.000000, 0.000000)">
                <g id="Testimonial" transform="translate(90.000000, 5405.000000)">
                    <g id="Group-2" transform="translate(862.000000, 163.000000)">
                        <path d="M25,0 L25,0 C38.8071187,-2.53632657e-15 50,11.1928813 50,25 L50,25 C50,38.8071187 38.8071187,50 25,50 C11.1928813,50 1.69088438e-15,38.8071187 0,25 L0,25 L0,25 C-1.69088438e-15,11.1928813 11.1928813,2.53632657e-15 25,0 L25,0 Z M17,32 L22,32 C23.1045695,32 24,31.1045695 24,30 L24,25 C24,23.8954305 23.1045695,23 22,23 L17.09,23 C17.5775855,20.1153959 20.0744793,18.0029647 23,18 L23.5,18 C23.7761424,18 24,17.7761424 24,17.5 L24,16.5 C24,16.2238576 23.7761424,16 23.5,16 L23,16 C18.581722,16 15,19.581722 15,24 L15,30 C15,31.1045695 15.8954305,32 17,32 Z M28,32 L33,32 C34.1045695,32 35,31.1045695 35,30 L35,25 C35,23.8954305 34.1045695,23 33,23 L28.09,23 C28.5775855,20.1153959 31.0744793,18.0029647 34,18 L34.5,18 C34.7761424,18 35,17.7761424 35,17.5 L35,16.5 C35,16.2238576 34.7761424,16 34.5,16 L34,16 C29.581722,16 26,19.581722 26,24 L26,30 C26,31.1045695 26.8954305,32 28,32 Z" id="Combined-Shape"></path>
                    </g>
                </g>
            </g>
        </g>
    </g>
</svg>