<svg xmlns="http://www.w3.org/2000/svg" viewBox="0 0 76.71 30.09"><defs><style>.cls-1{fill:#fff;}</style></defs><title>Asset 2</title><g id="Layer_2" data-name="Layer 2"><g id="Layer_1-2" data-name="Layer 1"><path class="cls-1" d="M21.69,8.39a9.4,9.4,0,1,0,0,13.3l4.77-4.76-1.94-2-4.77,4.77a6.65,6.65,0,1,1,0-9.4L39.5,30.09H43.4Z"/><path class="cls-1" d="M23.73,23.73A12.28,12.28,0,1,1,15,2.76a12.2,12.2,0,0,1,8.69,3.6L47.47,30.09h3.9L25.68,4.41A15,15,0,1,0,15,30.09a15,15,0,0,0,10.64-4.41L30.4,21l-2-1.93Z"/><path class="cls-1" d="M55,21.7A9.4,9.4,0,1,0,55,8.4l-4.77,4.76,1.94,2L57,10.35a6.65,6.65,0,1,1,0,9.4L37.22,0h-3.9Z"/><path class="cls-1" d="M53,6.36a12.28,12.28,0,1,1,8.69,21A12.2,12.2,0,0,1,53,23.73L29.24,0H25.35L51,25.68A15,15,0,1,0,61.67,0,15,15,0,0,0,51,4.41L46.31,9.13l2,1.93Z"/></g></g></svg>